<svg id="Layer_1" data-name="Layer 1" xmlns="http://www.w3.org/2000/svg" viewBox="0 0 16.01 30.81"><defs><style>.cls-1,.cls-2{fill:none;stroke:#909399;stroke-linecap:round;stroke-linejoin:round;}.cls-1{stroke-width:1.5px;}.cls-2{stroke-width:1.48px;}</style></defs><title>attachment-icon</title><path class="cls-1" d="M36.11,45.41V31.81a7.26,7.26,0,0,1,7.26-7.26h0a7.26,7.26,0,0,1,7.26,7.26V44.9" transform="translate(-35.36 -23.8)"/><path class="cls-2" d="M36.11,36.24V48.63a5.24,5.24,0,0,0,5.24,5.24h0a5.24,5.24,0,0,0,5.24-5.24V39.19" transform="translate(-35.36 -23.8)"/><path class="cls-1" d="M46.59,41.14V33.6a3.19,3.19,0,0,0-3.19-3.19h0a3.19,3.19,0,0,0-3.19,3.19V46.46" transform="translate(-35.36 -23.8)"/></svg>