<?xml version="1.0" encoding="utf-8"?>
<!-- Generator: Adobe Illustrator 19.2.1, SVG Export Plug-In . SVG Version: 6.00 Build 0)  -->
<svg version="1.1" id="Layer_1" xmlns="http://www.w3.org/2000/svg" xmlns:xlink="http://www.w3.org/1999/xlink" x="0px" y="0px"
	 viewBox="0 0 33 25.3" style="enable-background:new 0 0 33 25.3;" xml:space="preserve">
<style type="text/css">
	.st0{fill:#51575F;}
</style>
<g>
	<title>chat</title>
	<path class="st0" d="M32.3,13.3H0.8C0.3,13.3,0,13,0,12.6s0.3-0.8,0.8-0.8h31.5c0.4,0,0.8,0.3,0.8,0.8S32.7,13.3,32.3,13.3z"/>
	<path class="st0" d="M32.3,1.5H0.8C0.3,1.5,0,1.2,0,0.8S0.3,0,0.8,0h31.5C32.7,0,33,0.3,33,0.8S32.7,1.5,32.3,1.5z"/>
	<path class="st0" d="M16,25.3H0.8C0.3,25.3,0,25,0,24.5s0.3-0.8,0.8-0.8H16c0.4,0,0.8,0.3,0.8,0.8S16.4,25.3,16,25.3z"/>
</g>
</svg>
