<svg id="Layer_1" data-name="Layer 1" xmlns="http://www.w3.org/2000/svg" viewBox="0 0 229.38 229.39"><defs><style>.cls-1{fill:#57c1e8;}</style></defs><title>Sizung_Logo</title><path class="cls-1" d="M-756.69,113A114.82,114.82,0,0,0-873,226.08a114.82,114.82,0,0,0,113.07,116.3A114.82,114.82,0,0,0-643.62,229.31,114.82,114.82,0,0,0-756.69,113ZM-814.87,215.5c3-6.36,6.17-12.6,9.54-18.75q4.21-7.68,8.74-15.19c1.65-2.74,3.32-5.47,5.05-8.16,1.42-2.21,2.69-4.4,5.54-4.77h0a5.94,5.94,0,0,1,.87,0,5.37,5.37,0,0,1,.84.07h0.06a5.74,5.74,0,0,1,4,2.64c0.42,0.68,6.55,10.64,13.52,24.08a0.17,0.17,0,0,1,0,.13,0.15,0.15,0,0,1,0,.1c-0.79,1.48-1.47,3-2.15,4.57a53.87,53.87,0,0,0-2.92,10,0.2,0.2,0,0,1-.23.19,0.22,0.22,0,0,1-.17-0.12c-2-4.24-4.11-8.3-6.08-12a8.31,8.31,0,0,0-7.23-4.45,8.3,8.3,0,0,0-7.31,4.15l0,0,0,0.07c-3.79,6.72-7.93,14.49-11.59,22.35a0.2,0.2,0,0,1-.19.13,0.2,0.2,0,0,1-.18-0.12,9,9,0,0,0-4.81-4.19,8.91,8.91,0,0,0-5.08-.34,0.21,0.21,0,0,1-.25-0.2A0.87,0.87,0,0,1-814.87,215.5Zm117.6,14.11,0,0.08c-0.1.24-1.7,4-3.3,7.58-2.13,4.82-4.43,9.56-6.87,14.24a376.23,376.23,0,0,1-19.11,32.76,6,6,0,0,1-9.9-.14c-0.28-.45-3.24-5.45-7.36-12.85l-0.4-.72,0,0c-1.79-3.22-3.77-6.89-5.82-10.86a0.17,0.17,0,0,1,0-.13,0.16,0.16,0,0,1,0-.09,36.45,36.45,0,0,0,2.29-4.49,37,37,0,0,0,2.71-10.34,0.2,0.2,0,0,1,.22-0.18,0.2,0.2,0,0,1,.16.1c2.08,4.35,4.2,8.53,6.22,12.37l0.12,0.23,0.06,0.11a8.33,8.33,0,0,0,7.16,4.27,8.3,8.3,0,0,0,7.35-4.25c2.06-3.66,4.22-7.62,6.37-11.75h0c1.41-2.72,2.8-5.52,4.15-8.35,0.55-1.16,1.29-2.82,2.05-4.53,1.43-3.23,2.9-6.65,3.21-7.36l0.07-.14a5.76,5.76,0,0,1,5.41-3.5,5.68,5.68,0,0,1,2.16.46,5.73,5.73,0,0,1,.72.38A5.76,5.76,0,0,1-697.27,229.61Zm2.41-10.48a0.26,0.26,0,0,1-.25.25,0.22,0.22,0,0,1-.18-0.08,7.7,7.7,0,0,0-3.44-2.87,8.47,8.47,0,0,0-1-.36,7.66,7.66,0,0,0-3-.21h0a7.76,7.76,0,0,0-3.2,1.15,0.22,0.22,0,0,1-.14,0,0.22,0.22,0,0,1-.22-0.23s0,0,0-.06a24.23,24.23,0,0,0-23.86-24.55,24.23,24.23,0,0,0-24.54,23.86,23.08,23.08,0,0,0,.08,2.33,24,24,0,0,0,1.54,6.71c0.05,0.13.08,0.27,0.14,0.4l0,0,0,0.06,0.1,0.27,0,0.08a35.42,35.42,0,0,1,2.11,8.26,36.66,36.66,0,0,1,.3,5.19,35.63,35.63,0,0,1-3,13.81,35.79,35.79,0,0,1-33.26,21.44,35.79,35.79,0,0,1-35.24-36.25A35.61,35.61,0,0,1-819,225l0.15-.34a5.56,5.56,0,0,1,1-1.55,5.76,5.76,0,0,1,6.59-1.5,5.77,5.77,0,0,1,3.49,5.76,5.68,5.68,0,0,1-.44,1.81l-0.14.33a24,24,0,0,0-1.88,9,24.23,24.23,0,0,0,23.85,24.55,24.24,24.24,0,0,0,24.55-23.86c0-.75,0-1.48-0.08-2.22a23.88,23.88,0,0,0-1.61-7s0-.08,0-0.11h0l0,0c0-.09-0.07-0.19-0.11-0.28-0.15-.39-0.3-0.78-0.44-1.18a35,35,0,0,1-1.74-7.14,36,36,0,0,1-.32-5.34,35.41,35.41,0,0,1,3-13.81A35.81,35.81,0,0,1-730,180.67a35.79,35.79,0,0,1,35.24,36.25C-694.77,217.66-694.81,218.39-694.86,219.13Z" transform="translate(872.99 -113)"/></svg>