<svg id="Layer_1" data-name="Layer 1" xmlns="http://www.w3.org/2000/svg" viewBox="0 0 55.6 55.59"><defs><style>.cls-1{fill:none;stroke:#f2695d;stroke-linecap:round;stroke-linejoin:round;stroke-width:1.5px;}.cls-2{fill:#fff;}</style></defs><title>notification_icon</title><circle class="cls-1" cx="27.8" cy="27.8" r="27.05"/><path class="cls-2" d="M2180.4,465.65l-6.19,4.22a1.81,1.81,0,0,1-1.09.41,1.43,1.43,0,0,1-1.36-1.43,1.49,1.49,0,0,1,1-1.29l7-3.34-7-3.34a1.4,1.4,0,0,1,.41-2.72,1.67,1.67,0,0,1,1.09.41l6.19,4.22-0.54-7.42a1.37,1.37,0,1,1,2.72,0l-0.55,7.42,6.19-4.22a1.81,1.81,0,0,1,1.09-.41,1.42,1.42,0,0,1,1.36,1.43,1.34,1.34,0,0,1-1,1.29l-7,3.34,7,3.34a1.35,1.35,0,0,1,1,1.29,1.43,1.43,0,0,1-1.36,1.43,1.81,1.81,0,0,1-1.09-.41l-6.19-4.22,0.55,7.42a1.37,1.37,0,1,1-2.72,0Z" transform="translate(-2153.42 -436.43)"/></svg>