<svg id="Layer_1" data-name="Layer 1" xmlns="http://www.w3.org/2000/svg" viewBox="0 0 44.6 44.6"><defs><style>.cls-1{fill:#f2695d;}.cls-2{fill:#fff;}</style></defs><title>organization_unseen_marker</title><circle class="cls-1" cx="22.3" cy="22.3" r="22.3"/><path class="cls-2" d="M2463.16,684.05l-6.19,4.22a1.81,1.81,0,0,1-1.09.41,1.42,1.42,0,0,1-1.36-1.43,1.49,1.49,0,0,1,1-1.29l7-3.34-7-3.33a1.4,1.4,0,0,1,.41-2.72,1.67,1.67,0,0,1,1.09.41l6.19,4.22-0.54-7.42a1.37,1.37,0,1,1,2.72,0l-0.55,7.42L2471,677a1.81,1.81,0,0,1,1.09-.41,1.43,1.43,0,0,1,1.36,1.43,1.34,1.34,0,0,1-1,1.29l-7,3.33,7,3.34a1.35,1.35,0,0,1,1,1.29,1.42,1.42,0,0,1-1.36,1.43,1.81,1.81,0,0,1-1.09-.41l-6.19-4.22,0.55,7.42a1.37,1.37,0,1,1-2.72,0Z" transform="translate(-2441.68 -660.32)"/></svg>