<svg id="Layer_1" data-name="Layer 1" xmlns="http://www.w3.org/2000/svg" viewBox="0 0 228.4 228.4"><defs><style>.cls-1{fill:#5ebee3;}</style></defs><title>sizung_logo_white_on_blue</title><path class="cls-1" d="M284.35,832.14A114.2,114.2,0,1,0,397.81,947.08,114.33,114.33,0,0,0,284.35,832.14ZM227.2,934.62c2.9-6.35,6-12.6,9.36-18.74q4.14-7.68,8.59-15.19c1.62-2.74,3.27-5.47,5-8.16,1.39-2.21,2.65-4.41,5.48-4.79h0a5.53,5.53,0,0,1,.86-0.05,5.72,5.72,0,0,1,.83.06h0.06a5.71,5.71,0,0,1,4,2.6c0.42,0.68,6.6,10.55,13.64,23.88a0.23,0.23,0,0,1,0,.23c-0.77,1.48-1.44,3-2.11,4.57a53.2,53.2,0,0,0-2.83,10,0.2,0.2,0,0,1-.22.18,0.21,0.21,0,0,1-.16-0.12c-2.06-4.2-4.15-8.23-6.15-11.94a8.25,8.25,0,0,0-14.47-.2l0,0,0,0.07c-3.72,6.72-7.78,14.49-11.37,22.34a0.2,0.2,0,0,1-.19.13,0.21,0.21,0,0,1-.18-0.11,8.94,8.94,0,0,0-9.89-4.44,0.2,0.2,0,0,1-.25-0.19A0.75,0.75,0,0,1,227.2,934.62Zm117.2,13.16,0,0.08c-0.1.23-1.66,4-3.22,7.57-2.09,4.82-4.35,9.55-6.74,14.23a374.46,374.46,0,0,1-18.78,32.77,6,6,0,0,1-9.86-.07c-0.28-.44-3.27-5.4-7.42-12.74l-0.4-.72,0,0c-1.8-3.2-3.8-6.83-5.87-10.77a0.18,0.18,0,0,1,0-.13,0.17,0.17,0,0,1,0-.08,36.72,36.72,0,0,0,4.87-14.81,0.2,0.2,0,0,1,.37-0.08c2.1,4.31,4.25,8.46,6.29,12.27l0.12,0.23,0.06,0.11a8.27,8.27,0,0,0,14.45-.08c2-3.66,4.15-7.62,6.25-11.75h0c1.38-2.72,2.75-5.52,4.07-8.34,0.54-1.16,1.27-2.82,2-4.53,1.4-3.22,2.84-6.64,3.14-7.35l0.06-.15a5.73,5.73,0,0,1,5.36-3.52,5.65,5.65,0,0,1,2.15.44,5.44,5.44,0,0,1,.72.37A5.74,5.74,0,0,1,344.39,947.78Zm2.32-10.45a0.27,0.27,0,0,1-.25.26,0.21,0.21,0,0,1-.18-0.08,7.66,7.66,0,0,0-3.45-2.83,8.44,8.44,0,0,0-1-.35,7.68,7.68,0,0,0-2.95-.19h0a7.71,7.71,0,0,0-3.18,1.16,0.21,0.21,0,0,1-.14,0,0.22,0.22,0,0,1-.22-0.23s0,0,0-.06a24.1,24.1,0,1,0-48.2-.32,23.24,23.24,0,0,0,.1,2.32,23.8,23.8,0,0,0,1.59,6.67c0.05,0.13.09,0.27,0.14,0.4v0l0,0.06,0.1,0.26,0,0.08a35.33,35.33,0,0,1,2.17,8.21,35.82,35.82,0,0,1,.34,5.16,35.6,35.6,0,1,1-68.51-13.82l0.15-.35a5.66,5.66,0,0,1,1-1.55,5.75,5.75,0,0,1,9.64,6l-0.14.33a24.1,24.1,0,1,0,46.39,9.34c0-.74,0-1.48-0.09-2.21a23.75,23.75,0,0,0-1.65-7s0-.07,0-0.11h0l0,0c0-.09-0.07-0.19-0.11-0.28-0.15-.39-0.31-0.77-0.45-1.17A34.89,34.89,0,0,1,276,940a35.83,35.83,0,0,1-.36-5.32,35.27,35.27,0,0,1,2.87-13.78,35.6,35.6,0,0,1,68.32,14.24C346.8,935.87,346.76,936.6,346.71,937.33Z" transform="translate(-169.41 -832.14)"/></svg>