<svg id="Layer_1" data-name="Layer 1" xmlns="http://www.w3.org/2000/svg" viewBox="0 0 240.04 70.83"><defs><style>.cls-1{fill:#5ebee3;}</style></defs><title>sizung-logo-blue</title><path class="cls-1" d="M103.41,130.62a6.31,6.31,0,0,1,2.55,2.29q2.06-4.25,4.12-8.49c1.3-2.71,4.16-4.54,7.57-3,1.79,0.81,2.5,2.45,3.45,4.06l3.21,5.44a25.57,25.57,0,0,1,.5-4.49,19.24,19.24,0,0,1,.84-3,7.82,7.82,0,0,0,.73-1.89l-1.84-3.12L118.1,107.5c-0.83-1.4-1.61-2.87-3.51-2.92s-2.73,1.24-3.42,2.66l-4.84,10L100.1,130a6.27,6.27,0,0,1,3.31.61h0Z" transform="translate(-95.66 -104.58)"/><path class="cls-1" d="M168,130.65a20.33,20.33,0,1,0-39.4,7.61,19,19,0,0,1,1.15,5,13.55,13.55,0,0,1-.76,5.27,13.8,13.8,0,0,1-26.62-2.32,14.06,14.06,0,0,1,.38-6.15c0.43-1.5,1.52-3,1.06-4.58a3.3,3.3,0,0,0-4.36-2.2c-1.33.53-1.76,1.65-2.23,2.89a21,21,0,0,0-1.05,12.4,20.34,20.34,0,0,0,40.08-6.38,19.44,19.44,0,0,0-1.12-5.09,19.07,19.07,0,0,1-1.17-4.4,13.8,13.8,0,0,1,21.32-13,14,14,0,0,1,5.41,16.09,5.47,5.47,0,0,1,5.92,2.82,20.37,20.37,0,0,0,1.39-8C168,130.42,168,130.88,168,130.65Z" transform="translate(-95.66 -104.58)"/><path class="cls-1" d="M162.94,138.91a3.31,3.31,0,0,0-4,1,11.23,11.23,0,0,0-1,1.87l-2.28,4.66c-0.68,1.38-1.12,2.31-1.8,3.72a8.13,8.13,0,0,1-1.35,2.15,6.09,6.09,0,0,1-4.27,1.91,5.32,5.32,0,0,1-4.48-2.51l-1.12-1.91-3.3-5.59a23.07,23.07,0,0,1-.69,5.4,23.58,23.58,0,0,1-.92,2.88,1.94,1.94,0,0,0-.38,1.21l1.91,3.22,6.4,10.86c0.87,1.48,1.82,3,3.85,2.77,1.7-.17,2.43-1.45,3.08-2.8l5.07-10.44c1.63-3.36,3-6.23,4.67-9.59,0.4-.83.75-1.59,1.17-2.44,0.32-.64.65-1.31,1-1.94a3.31,3.31,0,0,0-1-4.08,3.36,3.36,0,0,0-.5-0.31h0Z" transform="translate(-95.66 -104.58)"/><path class="cls-1" d="M215.37,128.76L215.9,130c0.26,0.56.55,1.11,0.82,1.6h0a0.71,0.71,0,0,0,.62.37,0.72,0.72,0,0,0,.62-0.37h0c0.27-.49.55-1,0.82-1.6l0.52-1.23a2.07,2.07,0,0,0-2-2.75h0a2.08,2.08,0,0,0-2.08,2.08A2,2,0,0,0,215.37,128.76Z" transform="translate(-95.66 -104.58)"/><path class="cls-1" d="M264.56,162.43a11.12,11.12,0,0,1-11.11-11.11V136.38a1.71,1.71,0,0,1,3.42,0v14.94a7.68,7.68,0,1,0,15.36,0V136.46a1.71,1.71,0,1,1,3.43,0v14.86A11.12,11.12,0,0,1,264.56,162.43Z" transform="translate(-95.66 -104.58)"/><path class="cls-1" d="M293.36,134.67a11.06,11.06,0,0,0-7.68,3.1v-1.39a1.71,1.71,0,0,0-3.42,0v24.26h0a1.71,1.71,0,1,0,3.42,0h0V145.77a7.68,7.68,0,0,1,15.36,0v14.94a1.71,1.71,0,0,0,3.43,0V145.77A11.12,11.12,0,0,0,293.36,134.67Z" transform="translate(-95.66 -104.58)"/><path class="cls-1" d="M215.56,137.17a1.89,1.89,0,0,1,1.78-2,1.87,1.87,0,0,1,1.83,2v22.27a1.83,1.83,0,0,1-1.78,2,1.86,1.86,0,0,1-1.83-2V137.17Z" transform="translate(-95.66 -104.58)"/><path class="cls-1" d="M226.36,159.59v-0.1a2.54,2.54,0,0,1,.75-1.76l15.32-19.24H228.29a1.57,1.57,0,0,1-1.55-1.6,1.62,1.62,0,0,1,1.55-1.66h17.28a1.64,1.64,0,0,1,1.73,1.55v0.11a2.53,2.53,0,0,1-.75,1.75l-15.32,19.25H246a1.63,1.63,0,0,1,0,3.26H228.1A1.67,1.67,0,0,1,226.36,159.59Z" transform="translate(-95.66 -104.58)"/><path class="cls-1" d="M196.52,161.13a15.69,15.69,0,0,1-4.58-.69,12.74,12.74,0,0,1-6.67-4.74,1.87,1.87,0,1,1,3.07-2.15,8.92,8.92,0,0,0,4.7,3.31c4.93,1.52,10-.33,11.48-4.21a7.83,7.83,0,0,0,.41-3.29c-0.37-4.24-3.84-5.5-9.5-7.05l-1.31-.37a10.93,10.93,0,0,1-6.9-5.44,8.77,8.77,0,0,1-.3-7.16c1.95-5,8.09-7.74,13.68-6a11,11,0,0,1,5,3.15,1.87,1.87,0,0,1-2.8,2.49,7.17,7.17,0,0,0-3.27-2.06c-3.76-1.16-7.83.54-9.09,3.79a5,5,0,0,0,.17,4.14,7.2,7.2,0,0,0,4.57,3.51l1.29,0.35c5.18,1.42,11.61,3.19,12.24,10.34a11.62,11.62,0,0,1-.65,5,10.93,10.93,0,0,1-6.59,6.28A14.13,14.13,0,0,1,196.52,161.13Z" transform="translate(-95.66 -104.58)"/><path class="cls-1" d="M203.1,126.71" transform="translate(-95.66 -104.58)"/><path class="cls-1" d="M323.63,172.56" transform="translate(-95.66 -104.58)"/><path class="cls-1" d="M312.07,169" transform="translate(-95.66 -104.58)"/><path class="cls-1" d="M335.71,147.82h0V136.94a1.71,1.71,0,0,0-3.42,0v2a13.15,13.15,0,1,0-9.73,22h0a13.12,13.12,0,0,0,9.73-4.31v6.13a10.37,10.37,0,0,1-.55,3.77c-1.71,4.42-7.42,6.54-13,4.82a10.15,10.15,0,0,1-5.33-3.76,1.71,1.71,0,0,0-2.8,2,13.59,13.59,0,0,0,7.13,5.07,16.93,16.93,0,0,0,4.93.74,15.09,15.09,0,0,0,5.25-.92,11.66,11.66,0,0,0,7-6.69,13.63,13.63,0,0,0,.78-5v-15h0Zm-13.15,9.74a9.74,9.74,0,1,1,9.73-9.74h0A9.75,9.75,0,0,1,322.55,157.56Z" transform="translate(-95.66 -104.58)"/><path class="cls-1" d="M329.86,136.38" transform="translate(-95.66 -104.58)"/></svg>